<svg width="60" height="60" viewBox="0 0 60 60" fill="none" xmlns="http://www.w3.org/2000/svg">
<path d="M60 30C60 13.4315 46.5685 0 29.9999 0C13.4314 0 0 13.4315 0 30C0 46.5685 13.4314 60 29.9999 60C46.5685 60 60 46.5685 60 30Z" fill="black"/>
<path d="M22.8376 15.326C14.3979 15.326 14.4507 23.7128 14.4507 23.7128V28.5043C14.4507 28.5043 16.3721 23.7128 21.6922 23.7128H22.2086H39.6114C48.1885 23.7128 47.9998 15.4174 47.9979 15.3395H47.9774L47.9983 15.3264H43.5288H32.6807L22.8376 15.326ZM22.8376 25.81C14.3979 25.81 14.4507 34.1969 14.4507 34.1969V38.9883C14.4507 38.9883 16.3721 34.1969 21.6922 34.1969H22.2086H39.6114C48.1885 34.1969 47.9998 25.9015 47.9979 25.8235H47.9774L47.9983 25.8105H43.5288C43.5288 25.8105 36.1293 25.8106 32.6807 25.8105C29.2321 25.8104 22.8376 25.81 22.8376 25.81Z" fill="white"/>
<path d="M22.8376 36.2871C14.398 36.2871 14.4507 44.674 14.4507 44.674H24.3053H24.5149C33.0921 44.674 32.9034 36.3786 32.9015 36.3007H32.881L32.9018 36.2875H28.4324H22.8261L22.8376 36.2871Z" fill="white"/>
</svg>
